<svg width="29" height="29" viewBox="0 0 29 29" fill="none" xmlns="http://www.w3.org/2000/svg">
<path d="M2.41666 3.625H6.64582L9.49551 16.243C9.74435 17.3448 10.7227 18.125 11.8523 18.125H22.2281C23.3608 18.125 24.3415 17.3383 24.5872 16.2326L26.5833 7.25H7.85416M13.2917 24.1667C13.2917 24.834 12.7507 25.375 12.0833 25.375C11.416 25.375 10.875 24.834 10.875 24.1667C10.875 23.4993 11.416 22.9583 12.0833 22.9583C12.7507 22.9583 13.2917 23.4993 13.2917 24.1667ZM22.9583 24.1667C22.9583 24.834 22.4174 25.375 21.75 25.375C21.0826 25.375 20.5417 24.834 20.5417 24.1667C20.5417 23.4993 21.0826 22.9583 21.75 22.9583C22.4174 22.9583 22.9583 23.4993 22.9583 24.1667Z" stroke="black" stroke-width="1.5" stroke-linecap="round" stroke-linejoin="round"/>
</svg>
